<?xml version="1.0" encoding="UTF-8"?><svg id="Layer_1" xmlns="http://www.w3.org/2000/svg" viewBox="0 0 921.71 690.49"><defs><style>.cls-1{fill:#16a34a;}.cls-2{fill:#027f0e;}.cls-3{fill:#ddddde;}</style></defs><path class="cls-3" d="M245.68,165.97c-.18-1.3-.36-2.6-.54-3.95,1.1-1.26,2.15-2.46,3.61-4.14-1.95-.31-3.28-.53-4.61-.74-.1-.33-.2-.66-.3-.99,12.05-5.62,24.1-11.24,36.04-16.8,4.39,1.1,1.7,4.38,2.39,7.08,1.46-.69,2.86-1.34,4.41-2.07,1.42.58,2.9,1.19,4.36,1.79,1.17-1.62-.24-3.04.21-4.98.75-.86,1.82-2.09,2.89-3.32-1.12-1.99-3.52-.58-5.42-2.56,13.79-6.41,27.32-12.71,41.93-19.51-1.11,2.45-1.74,3.84-2.36,5.2-1.72.29-3.19.54-4.9.84.32,1.96,2.41,2.58,3.19,4.48-.17,1.3-.37,2.91-.63,4.89,1.8-.75,3.27-1.37,4.92-2.07,1.42.64,2.93,1.31,4.46,2,1.15-1.64-.43-3.17-.1-5.13.94-1.09,2.09-2.43,3.54-4.13-1.95-.3-3.37-.52-4.7-.73-1.75-1.39-2.03-3.46-3.19-5.4,13.62-6.36,27.16-12.69,40.7-18.99,3.92-1.82,8.09-3.22,11.75-5.46,15.91-9.74,33.07-11.97,51.52-11.38,30.27.96,60.6.26,89.83.26,14.57,6.83,28.23,13.24,43.31,20.3h-174.82v10.68c2.18,0,4.15,0,6.12,0,62.11-.01,124.21,0,186.32-.08,3.59,0,6.79.68,10.05,2.24,12.39,5.95,24.89,11.67,37.26,18.13h-239.35c-1.2,3.59-.49,6.85-.65,10.07,2.26,1.15,4.44.63,6.52.63,83.75,0,167.5-.03,251.25-.15,4.27,0,8.12.7,11.98,2.56,12.18,5.88,24.46,11.53,36.51,18.12h-306.02v9.86c1.69,1.31,3.76.63,5.66.63,106.4,0,212.79-.04,319.19-.15,3.77,0,7.14.74,10.52,2.37,12.07,5.81,24.23,11.42,36.18,17.78H165.84c-.11-.21-.21-.42-.32-.63,23.17-10.78,46.34-21.55,69.22-32.2,3.67,1.72.72,4.41,1.73,6.72,1.45-.67,2.85-1.33,4.28-1.99,1.44.5,2.83.98,4.22,1.46.16.21.33.41.7.88v-1.42ZM381.05,104.95c-2.22-.52-3.8-.89-5.24-1.22-.88-1.55-1.64-2.87-2.63-4.6-1.12,1.9-1.94,3.3-2.76,4.69-1.63.36-3.15.7-5.16,1.14,1.43,1.58,2.5,2.77,3.24,3.6.81,2.05-.88,3.63.28,5.33,1.53-.61,3.04-1.21,4.43-1.76,1.55.64,2.91,1.2,4.52,1.86v-5.37c1.09-1.21,2.07-2.3,3.31-3.67ZM310.83,148.37c1.99-.94,3.33-1.58,4.72-2.23,1.52.69,2.99,1.35,4.86,2.2-.22-2.02-.39-3.62-.56-5.27,1.11-1.22,2.19-2.41,3.68-4.05-2.17-.39-3.72-.68-5.19-.94-.91-1.54-1.75-2.96-2.74-4.64-1.07,1.75-1.98,3.25-2.81,4.61-1.7.35-3.18.66-4.99,1.03,1.44,1.71,2.49,2.95,3.42,4.05-.13,1.74-.24,3.21-.4,5.24ZM341.6,138.08c-1.74.3-3.15.54-4.58.79.18,2.25,2.69,2.67,3.04,5.01.27,1.08-1.1,2.68.09,4.25,1.42-.66,2.74-1.28,4.09-1.91,1.55.6,3.02,1.16,4.81,1.85-.09-2-.16-3.63-.19-4.17.61-2.66,2.91-2.97,2.86-5.03-1.61-.3-3.2-.61-4.68-.89-.94-1.61-1.74-3-2.69-4.63-.98,1.67-1.81,3.09-2.76,4.72ZM381.06,140.87c-2.16-.7-3.96-.33-5.47-1.52-.69-1.22-1.44-2.55-2.42-4.31-1.12,1.95-1.93,3.35-2.73,4.74-1.64.36-3.15.7-5.2,1.15,1.48,1.61,2.56,2.8,3.31,3.62.72,2.06-.88,3.64.22,5.34,1.55-.63,3.07-1.25,4.43-1.8,1.61.62,3.02,1.17,4.72,1.82-.1-2.17-.17-3.79-.24-5.24,1.15-1.28,2.13-2.38,3.39-3.79ZM272.65,165.35c2.35-.33,3.39,1.72,5.19,1.17v-4.64c.7-1.72,2.83-2.11,2.76-4.11-1.55-.26-3.01-.51-4.5-.76-.91-1.52-1.76-2.96-2.79-4.7-1.07,1.86-1.89,3.27-2.7,4.66-1.62.33-3.12.64-5.05,1.04,1.47,1.66,2.54,2.87,3.24,3.66.68,2.05-.92,3.62.35,5.23,1.43-.64,2.78-1.23,3.5-1.55ZM348.75,180.76c1.29-1.47,2.26-2.58,3.44-3.93-1.92-.39-3.49-.72-5.11-1.05-.86-1.51-1.66-2.94-2.62-4.64-1.08,1.72-2.02,3.22-2.9,4.63-1.66.39-3.14.73-4.94,1.15,1.42,1.65,2.48,2.88,3.25,3.78.46,1.95-.86,3.54.24,5.14,1.57-.69,2.92-1.28,4.13-1.82,1.65.59,3.09,1.1,4.9,1.74-.16-2.01-.27-3.47-.39-5.01ZM325.99,167.15c1.9-.77,3.54-1.43,5.02-2.03,1.63.72,3.03,1.34,4.89,2.17-.33-2.18-.57-3.77-.8-5.28,1.21-1.34,2.28-2.54,3.71-4.13-2.05-.36-3.59-.63-4.35-.76-2.39-1.19-1.81-3.84-3.92-4.39-.85,1.47-1.66,2.88-2.45,4.25-1.7.31-3.21.6-5.13.95,1.43,1.58,2.52,2.79,3.6,3.99-.19,1.72-.37,3.33-.59,5.24ZM377.57,181.18c.84-2.14,2.92-2.54,2.98-4.43-1.68-.39-3.27-.75-4.76-1.1-.87-1.54-1.63-2.89-2.62-4.64-1.07,1.87-1.88,3.28-2.7,4.71-1.62.37-3.16.71-5.14,1.16,1.34,1.52,2.4,2.73,3.2,3.65.79,1.95-.83,3.53.2,5.29,1.53-.62,3.03-1.22,4.38-1.76,1.63.62,3.06,1.16,4.95,1.88-.22-2.05-.37-3.5-.5-4.75ZM356.99,120.92c-1.92.41-3.39.72-5.14,1.09,1.41,1.65,2.46,2.88,3.17,3.71.52,2.04-.78,3.63.29,5.07,1.85.01,2.99-1.79,4.88-1.41,1.47.03,2.49,1.98,4.34,1.34-.22-1.74-.41-3.33-.49-3.93.69-2.58,3.03-2.86,2.9-4.92-1.59-.34-3.17-.69-4.39-.95-1.5-1.43-1.43-3.43-3.16-4.34-.79,1.42-1.57,2.82-2.41,4.34ZM284.13,175.89c-1.92.35-3.38.62-5.08.93,1.24,1.42,2.3,2.65,3.45,3.97-.13,1.57-.27,3.18-.43,5.08,1.79-.71,3.28-1.31,4.44-1.77,2.02-.09,3.09,1.87,5.08,1.31-.18-1.62-.35-3.21-.48-4.47.94-1.75,2.85-2.31,3.1-4.17-1.63-.34-3.23-.68-4.46-.94-1.55-1.35-1.4-3.41-3.23-4.29-.78,1.43-1.54,2.82-2.39,4.35ZM310.8,180.21c.86,2.27-.64,3.93.69,5.52,1.37-.6,2.72-1.19,2.86-1.25,3.01-.61,4.01,1.59,6.01.98-.17-1.6-.34-3.19-.46-4.31.87-1.98,2.89-2.51,3-4.39-1.53-.7-3.39-.13-4.74-1.34-1.23-1.06-1.07-3.12-2.79-3.9-.85,1.45-1.68,2.87-2.51,4.31-1.64.33-3.17.64-5.09,1.03,1.3,1.43,2.28,2.52,3.05,3.36ZM363.94,162.37c.79-2.06,2.94-2.46,3.05-4.55-1.56-.32-3.12-.64-3.35-.68-2.85-1.36-2.25-3.94-4.33-4.5-.85,1.5-1.66,2.93-2.43,4.29-1.69.33-3.2.63-5.16,1.01,1.44,1.58,2.52,2.77,3.28,3.6.58,2.07-.7,3.68.34,5.33,1.55-.6,3.06-1.18,4.42-1.7,1.65.69,3.07,1.29,4.91,2.06-.3-2.03-.52-3.47-.73-4.86ZM252.59,180.4c.81,2.19-1.06,3.76.38,5.31,1.53-.66,2.88-1.25,3.87-1.68,2.05.04,3.11,1.87,5.04,1.39-.14-1.66-.27-3.28-.38-4.49.82-1.85,2.81-2.3,3-4.13-1.68-.37-3.27-.72-4.8-1.05-.84-1.53-1.57-2.87-2.53-4.61-1.11,1.91-1.92,3.31-2.75,4.75-1.6.32-3.1.62-5.09,1.02,1.46,1.58,2.45,2.65,3.25,3.51ZM297.93,162.04c-.25,1.64-.48,3.22-.77,5.12,2.05-.83,3.68-1.48,5.13-2.07,1.63.72,3,1.33,4.75,2.1-.27-2.26-.46-3.86-.6-5.01.89-1.96,2.92-2.46,3.08-4.39-1.63-.3-3.21-.59-4.73-.87-.88-1.56-1.65-2.91-2.65-4.7-1.07,1.86-1.87,3.26-2.71,4.74-1.57.29-3.09.58-5.17.97,1.5,1.68,2.58,2.87,3.68,4.1Z"/><path class="cls-3" d="M466.42,19.03c117.47,53.91,234.64,107.68,352.02,161.55v94.21c34.28,6.98,68.28,13.91,102.31,20.84,1.41,1.16.86,2.69.73,4.45h-133.8v-111.58c-107.15-49.35-214.14-98.62-321.13-147.89-106.86,49.17-213.56,98.28-320.67,147.57v111.55H.7c-.93-1.72-.81-2.84-.14-4.84,37.25-9.92,75.77-16.2,114.32-24v-90.46c117.23-53.83,234.24-107.55,351.54-161.41Z"/><path class="cls-3" d="M102.22,492.94c-17.9-3.61-35.81-7.16-53.69-10.86-16.09-3.33-32.25-6.38-47.67-11.06-1.11-1.6-1.07-2.86-.25-4.76h145.14v31.47c106.9,49.2,213.59,98.3,320.8,147.64,106.71-49.14,213.68-98.4,321.02-147.82v-29.97h133.55c.9,1.36.64,2.79.16,4.39-31.37,6.47-62.77,12.95-94.18,19.43-1.55.3-3.1.61-4.65.91-1.47.08-2.93.19-4.19,1.61v11.59c-117.34,53.85-234.62,107.66-351.85,161.46-117.29-53.86-234.39-107.62-351.52-161.41v-10.26c-2.63-1-5.09-1.37-7.6-1.47-1.58-.93-3.35-.75-5.07-.89Z"/><path class="cls-3" d="M775.01,203.55v20.21H156.58v-20.21h618.43Z"/><path class="cls-3" d="M156.38,257.01v-20.25h618.45v20.25H156.38Z"/><path class="cls-3" d="M783.34,316.61v16.03c-1.65,1.4-3.55.73-5.29.73-23.98.05-47.95.03-71.93.04-8.44,0-9.37.96-9.37,9.48,0,11.65.07,23.31-.03,34.96-.04,4.15,1.84,6.37,5.87,6.39,19.95.07,39.9.03,60.11.03v-16.75h-50.88v-16.65c1.17-1.03,2.74-.51,4.17-.51,18.48-.04,36.96-.04,55.45-.02,9.69,0,12.91,3.21,12.91,12.75,0,9.16.01,18.31-.01,27.47-.02,6.75-3.23,10.6-9.77,10.64-24.64.14-49.28.14-73.92-.08-6.05-.05-11.77-2.12-16.75-5.75-5.29-3.86-8.31-9.01-8.32-15.66-.04-13.65-.12-27.3.03-40.95.11-10.52,7.99-19.02,19.59-21.36,2.76-.56,5.61-.9,8.42-.91,25.64-.07,51.28-.05,76.93-.04.8,0,1.6.1,2.83.18ZM781.59,358.26h-67.69c.07,2.38-.61,4.43.57,7.02h51.03v11.03h15.86c.59-6.11.77-11.81.23-18.05ZM678.29,357.68v20.46c5.56.31,10.68.86,15.77-1.25v-19.2h-15.77ZM766.12,380.6c.23-.27.52-.55-.11-.73.03.26.07.5.11.73Z"/><path class="cls-3" d="M121.97,316.48v16.33c-1.64,1.16-3.53.56-5.27.57-23.96.05-47.93.02-71.89.03-8.19,0-9.27,1.09-9.28,9.14,0,11.65.03,23.29-.05,34.94-.03,3.92,1.37,6.69,5.56,6.72,20.11.1,40.23.05,60.58.05v-16.89h-51.16v-16.34c.94-1.2,2.38-.66,3.63-.67,18.81-.03,37.61-.04,56.42-.01,9.35.02,12.58,3.27,12.58,12.5,0,9.32.02,18.63-.01,27.95-.02,6.48-3.15,10.33-9.46,10.36-24.96.15-49.92.21-74.88-.14-7.08-.1-13.66-2.87-18.84-8.05-3.97-3.97-5.65-8.86-5.62-14.45.06-12.31.02-24.62.03-36.94,0-13.12,7.38-21.96,20.31-24.31,1.96-.36,3.96-.75,5.94-.75,26.95-.05,53.9-.03,81.43-.03ZM120.52,357.76H52.76c-.28,2.61-.54,4.84.25,7.58h50.62c1.31,3.87-.16,7.5,1.48,11.24h15.41v-18.83ZM32.9,357.44c-5.73.1-10.82-.45-15.81.37v23.23c5.57.13,10.6.41,15.81-.27v-23.33Z"/><path class="cls-1" d="M829.91,168.27v93.44c-1.6.85-2.82.95-4.36-.32v-89.67c-119.38-55.41-238.71-110.79-358.14-166.21-120.06,55.79-239.99,111.52-360.23,167.39v88.65c-1.77,1.31-3.11,1.33-4.75.19v-92.09C224.08,113.17,345.83,56.65,467.88,0c120.63,56.07,241.15,112.09,362.03,168.27Z"/><path class="cls-3" d="M858.44,402.44c-10.69-.18-20.91.82-30.79-2.3-13.21-4.18-24-11.42-27.33-25.67-2.35-10.05-2.31-20.65-.08-30.69,3.37-15.17,14.74-23.31,28.98-26.27,18.99-3.95,38.46-3.95,57.45,0,14.24,2.97,25.55,11.13,28.89,26.34,2.18,9.9,2.26,20.33-.03,30.21-3.77,16.24-16.24,23.46-31.31,27.08-8.68,2.08-17.56,1.05-25.78,1.31ZM857.85,385.28s0-.03,0-.04c5.82,0,11.67.36,17.46-.07,13.29-.99,19.99-8.47,20.01-21.75,0-3.33.01-6.65,0-9.98-.03-11.36-5.29-17.82-16.52-20.27-7.74-1.69-15.59-.7-23.39-.79-6.3-.07-12.64-.64-18.89.85-10.89,2.61-16.03,9-16.06,20.17,0,3.33,0,6.65,0,9.98.01,13.51,6.86,20.99,20.42,21.84,5.63.36,11.31.06,16.96.06ZM818.15,357.19h-16.52c.14,8.43-1.29,16.67,4.24,23.83,5.5.42,10.89.31,17.1-1-5.9-6.67-4.74-14.65-4.81-22.83ZM914.06,358.16h-16.31c-.12,7.56.56,15.05-4.79,22.03,6.56-.08,11.95-.25,17.3.52,4.82-7.07,4-14.85,3.79-22.55Z"/><path class="cls-3" d="M162.71,401.05h-21.43c0-3,0-5.78,0-8.57,0-21.63-.01-43.25,0-64.88,0-7.15,3.31-11.05,10.45-11.09,25.46-.16,50.92-.29,76.37.12,12.06.2,22.64,7.83,22.1,23.37-.68,19.61-9.04,30.12-28.38,33.4-1.45.25-2.89.56-5.09.99,13.27,8.92,25.99,17.47,39.98,26.88-11.72,0-21.94,0-32.16,0-1.84,0-3.04-1.25-4.39-2.15-10.09-6.73-20.3-13.31-30.15-20.38-4.7-3.37-9.42-5.27-15.19-4.53-1.93.25-3.92.04-6.15.04v-17c12.72,0,25.17,0,37.61,0,2.33,0,4.66.06,6.99-.04,11.01-.47,15.53-5.19,15.52-16.12,0-2.14,0-4.27,0-7.05h-66.07v67ZM244.03,358.25c-2.59-1.26-4.61-.69-6.54-.87-12.01-1.16-23.64,3.01-35.69,2.29-10.21-.61-20.49-.13-31-.13-.17,4.39-.55,8.3.65,12.87,11.7-3.87,19.26,4.49,27.95,9.55,6.42-1.92,13.12.33,20.63-1.92-3.71-2.82-6.48-4.93-10.2-7.76,13.67-.92,25.59-3.01,34.2-14.03ZM159.79,380.87v-23.36c-5.64.04-10.83-.61-16.21.45.04,7.96-.41,15.36,1.1,22.84,5,.59,9.74.44,15.11.07Z"/><path class="cls-1" d="M822.45,492.32c1.55-.3,3.1-.61,4.65-.91,0,10.12,0,20.24,0,30.89-119.95,55.95-239.94,111.92-360.59,168.19-121.22-56.48-242.7-113.08-364.3-169.74,0-9.55,0-18.68,0-27.81,1.72.13,3.49-.05,5.07.89,0,7.94,0,15.88,0,23.87,119.85,55.9,239.25,111.59,358.77,167.33,118.84-55.37,237.52-110.66,356.39-166.04v-26.68Z"/><path class="cls-3" d="M403.96,333.16v48.19c2.14,3.14,5.05,2.96,7.88,2.96,20.97,0,41.94,0,62.91,0h6.2v16.96c-1.63,0-3.09,0-4.56,0-21.63,0-43.27-.02-64.9.02-5.91.01-11.63-.85-16.91-3.57-7.87-4.06-12.34-10.19-12.24-19.46.18-16.8.04-33.61.05-50.41,0-7.76,3.29-11.11,11.14-11.41,1-.04,2-.01,3-.01,26.46,0,52.92,0,79.38,0h5.09v16.74h-77.03ZM385.2,358.27v19.23c1.55-1.15.67-3.06,2.23-3.58,4.35-.8,8.88.7,13.41-1.05.54-4.83.83-9.51.02-14.46-5.35-.8-10.37-.52-15.66-.14Z"/><path class="cls-3" d="M585.37,373.72v-56.99h20.73c1.21,1.31.58,3.05.58,4.63.05,23.13-.02,46.26.1,69.39.02,4.48-.57,8.42-5.07,10.41-4.74,2.09-9.42,1.89-13.62-1.48-7.39-5.94-14.74-11.93-22.11-17.9-14.22-11.52-28.44-23.03-42.66-34.55-.98-.79-1.98-1.56-3.77-2.97v56.73h-20.91c-1.23-1.54-.59-3.44-.59-5.19-.05-22.63.03-45.26-.09-67.9-.03-4.77.38-9.09,5.32-11.31,5.24-2.37,9.93-1.32,14.36,2.3,13.9,11.38,27.9,22.65,41.87,33.95,8.23,6.66,16.47,13.3,25.87,20.88ZM604.04,358.13h-16.5v20.46c-7.13-5.8-13.71-10.38-19.33-15.92-8-7.88-17.19-3.54-26.06-4,7.78,7.12,15.85,13.46,23.82,19.91,4.15,3.36,8.01,7.28,14.07,4.03.59-.32,1.59.21,2.4.21,7.09.02,14.18.01,21.6.01v-24.69ZM500.76,358.37c-.57,7.05-.32,13.83.18,19.93,5.59,2.98,10.61,1.19,15.66,1.43v-21.39c-5.38-.58-10.4-.6-15.84.03Z"/><path class="cls-3" d="M365.84,384.32v16.6c-.74.13-1.35.33-1.97.33-23.12.02-46.25.03-69.37,0-5.39,0-10.57-1.15-15.37-3.66-7.89-4.11-12.19-10.36-12.1-19.56.16-16.63.05-33.26.06-49.89,0-8.05,3.29-11.59,11.37-11.69,11.64-.14,23.29-.04,34.93-.04,17.28,0,34.57,0,52.24,0v16.75h-75.96c-1.79,1.42-1.28,2.86-1.29,4.11-.04,13.14-.04,26.28-.02,39.42.01,6.34,1.17,7.59,7.62,7.6,21.29.06,42.59.02,63.88.02,1.81,0,3.62,0,5.98,0ZM285.76,357.63c-5.72.88-11.03-.47-16,.91v17.07c4.67,6.24,11.77-1.64,16,4.49v-22.46Z"/><path class="cls-1" d="M371.27,461.19c2.44-12.63,4.57-23.65,6.71-34.67,3.75-1.09,7.14-.53,11.19-.38-1.57,8.27-3,16.04-4.54,23.79-1.59,7.97-3.29,15.92-4.93,23.89-.55,2.69-1.28,5.28-4.43,5.97-3.3.73-5.13-1.11-6.85-3.71-5.85-8.87-11.89-17.61-18.26-26.99-5.19,7.67-10.08,14.93-15.01,22.16-1.59,2.33-3.06,4.8-5,6.81-3.17,3.28-7.94,2.19-8.89-2.17-3.55-16.36-6.83-32.78-10.24-49.33,3.84-1.11,7.25-.72,11.22-.27,2.2,11.3,4.4,22.62,6.8,34.96,5.31-7.88,10.02-14.87,14.74-21.86,4.5-6.66,8.32-6.69,12.8-.07,4.63,6.86,9.23,13.73,14.68,21.86Z"/><path class="cls-1" d="M667.83,462.81c6.42,5.59,13.34,10.14,19.7,16.5-8.04.84-15.17,1.58-21.31-4.4-3.79-3.7-8.45-6.5-12.31-10.13-3.13-2.94-7-2.44-10.71-3.15-.85-2.97-.4-5.74-.42-8.97,5.48-.87,10.77-.26,16.02-.44,1.33-.04,2.66,0,3.99,0,11.47-.01,14.4-3.65,12.09-15.62h-36.29v42.65c-3.74.75-6.66.73-9.4.17-1.54-1.28-1.27-2.86-1.28-4.32-.1-13.98-.21-27.95-.24-41.93-.01-5.58,1.55-7.21,7.04-7.23,12.98-.06,25.97-.09,38.95.01,7.95.06,12.69,4.85,12.91,12.73.31,11.21-.43,19.1-18.74,24.14Z"/><path class="cls-1" d="M615.62,479.27c-3.79.68-6.7.73-9.72.06-2.13-3.7,0-7.95-1.76-12.09h-35.68c-1.91,3.66-.1,7.82-1.36,11.84-2.9,1.22-5.95.78-8.84.31-1.61-1.5-1.19-3.25-1.21-4.86-.08-7.15-.17-14.29-.12-21.44.08-14.28,10.65-26.03,24.9-26.92,9.44-.59,18.94-.23,28.42-.21,3.28,0,5.48,1.6,5.49,5.09.03,9.64-.07,19.28-.11,28.92-.02,6.3,0,12.6,0,19.31ZM568.29,456.59h36.07v-20.24c-7.67,0-15.02-.69-22.18.17-10.33,1.24-15.5,9.16-13.89,20.07Z"/><path class="cls-1" d="M302.19,479.08c-3.85.93-6.6.89-9.67.22-.54-3.9-1.08-7.79-1.67-12.08h-35.69c-.55,4-1.09,7.89-1.64,11.91-2.93,1.03-5.82.74-9.36.17.01-11.08-1.26-22.07.26-32.89,1.5-10.62,12.39-19.59,23.79-20.24,9.46-.54,18.97-.24,28.45-.23,3.27,0,5.5,1.52,5.51,5.06.05,15.96.02,31.92.02,48.08ZM291.38,456.61c.74-6.75.25-13.4.1-20.54-5.23,0-9.86-.02-14.49,0-2.66.02-5.36-.13-7.97.25-10.42,1.52-16.61,10.43-13.91,20.27h36.26Z"/><path class="cls-1" d="M408.74,443.38v35.86c-3.67.72-6.7.88-9.53.06-1.34-1.51-1.08-3.06-1.09-4.53-.1-14.14-.13-28.27-.29-42.41-.04-3.1.61-5.71,3.69-6.92,2.85-1.12,5.1.25,7.14,2.23,10.86,10.54,21.75,21.04,32.64,31.54,1.17,1.13,2.36,2.23,4.28,4.03v-36.42c3.81-1.48,7.18-.93,10.42-.57,1.23,1.71.82,3.42.81,5.04-.04,13.64-.18,27.27-.18,40.91,0,3.18-.26,6.15-3.66,7.43-3.07,1.16-5.3-.51-7.48-2.61-10.41-10.04-20.9-19.99-31.38-29.95-1.31-1.25-2.47-2.73-5.37-3.7Z"/><path class="cls-1" d="M707.69,435.95v33.19c13.73,2.36,27.51.08,41.26,1.36.91,2.95.35,5.7.34,8.5-3.31,1.35-6.5.81-9.58.72-10.62-.31-21.29,1.09-31.84-.79-6.9-1.23-11.05-6.22-11.14-13.2-.13-11.14-.11-22.28-.22-33.42-.04-4.07,1.76-6.37,5.88-6.38,15.13-.03,30.27.01,45.4.06.46,0,.92.28,1.68.53.55,2.88.48,5.79-.16,9.43h-41.61Z"/><path class="cls-1" d="M548.31,426.77c.48,2.89.56,5.66-.24,9.3h-41.65v32.06c1.79,2.27,4.53,2.03,7.19,2.04,11.31,0,22.61,0,33.92,0,1.46,3,.9,5.75.54,8.35-.4.36-.64.77-.89.78-13.44.63-26.93,1.41-40.3-.35-7.99-1.05-11.74-6.21-11.86-14.24-.12-7.82-.19-15.65-.13-23.47.07-9.57,5.7-15.25,15.22-15.33,11.32-.09,22.64-.03,33.97,0,1.3,0,2.67-.26,4.26.86Z"/><path class="cls-1" d="M236.23,469.77c.85,3.88.87,6.62.12,9.41-2.65,1.13-5.34.55-7.94.57-11.98.07-23.96.07-35.94.02-7.69-.04-9.1-1.44-9.15-8.88-.1-13.14-.17-26.28-.21-39.42,0-1.62-.39-3.33.73-5.17,3.06-.71,6.29-.52,10.08,0v43.46h42.31Z"/><path class="cls-1" d="M470.48,564.78h-17.16c-1.08-17.61.7-35.16-.92-52.65,3.88,13.12,5.42,26.66,6.86,40.23.4,0,.79,0,1.19,0,.56-6.94,1.12-13.88,1.69-20.93,1.49.85.1,2.76,1.93,4.12,1.28-8.59,2.5-16.9,5.61-24.73.14,17.84,2.11,35.6.8,53.97Z"/><path class="cls-1" d="M376.29,531.42c.95,8-.61,16.05,1.48,23.85.61,2.26,2.51,4.17,4.39,7.17,2.94-11.02,4.92-21.32,9.98-30.74-5.31,10.74-1.24,20.82,1.82,31.15,4.12-7.32,3.24-16.16,7.66-24.03.46,7.2-.66,13.94,1.67,21.12,1.38-4.98,2.56-9.23,3.73-13.48.26.04.53.09.79.13-.62,7.63-1.24,15.27-1.94,23.86-5.54-2.2-10.37-1.2-15.36-1.9-.59-6.93-1.16-13.65-1.84-21.64-1.97,7.25-2.21,13.58-4.45,19.58-5.59,1.07-4.17-4.42-6.39-6.78-1.73,1.15-.43,3.19-1.58,4.62-1.29,1.02-2.82.81-5.03-.51-1.34-11.03,1.79-21.73,5.06-32.4Z"/><path class="cls-1" d="M494.31,536.81c-.88,5.77-3.37,10.84-3.16,16.6,2.63-2.32,3.58-6.07,8.38-7.81-3.16,6.64-3.42,13.04-5.28,18.94-7.1.23-13.83.92-21.38.13.74-18.81,5.22-36.41,12.43-53.43-3.67,14.03-5.91,28.29-7.09,42.95,4.56-6.63,9.78-12.55,16.09-17.37Z"/><path class="cls-3" d="M409.77,367.16v-16.62h62.57v16.62h-62.57ZM469.38,356.53h-56.79c-.9,2.88-.86,5.46-.31,8.28h57.9c.08-2.81.72-5.4-.8-8.28Z"/><path class="cls-3" d="M294.37,367.16v-16.44h62.66v16.44h-62.66ZM353.72,355.91h-56.19c-1.59,3.12-1.32,5.99-.78,8.87h58.02c.11-3.2.77-6.19-1.06-8.87Z"/><path class="cls-1" d="M711.44,448.15h33.03c1.26,3.26,1.21,6.24-.32,9.43h-32.08c-.99-3.24-.37-6.18-.64-9.43Z"/><path class="cls-1" d="M446.16,525.87c-.09,12.18-.22,24.24-.32,36.32-3.33,1.36-6.24.87-10.4.48-.65-15.53-1.29-31.09-1.94-46.65,3.29,13.14,5.68,26.43,7.5,40.08,1.72-10.07,3.44-20.15,5.17-30.22Z"/><path class="cls-1" d="M420.83,539.71c-.32-2.74-.63-5.35-1-8.48,4.96,8.4,7.67,29.53,4.03,31.65-2.35-2.77-1.72-6.17-2-9.36-.28-3.21-.72-6.41-1.24-10.97-2.79,6.92-3.69,12.62-1.85,19.02h-8.9c1.47-8.45,4.93-15.51,10.96-21.86Z"/><path class="cls-1" d="M602.04,563.62c-3.56-3.22-2.42-6.43-3.82-9.17-2.1,3.01-1.89,6.51-3.2,9.68-1.25,1.02-2.62,2.14-5.08,1.84,1.5-6.02,4.49-10.97,8.48-15.08-.24-2.95-.46-5.57-.68-8.19,2.07,6.44,4.74,12.76,4.29,20.93Z"/><path class="cls-1" d="M648.55,545.18c-2.32,1.52-4.09,2.28-6.47,2.29.65-8.88,2.38-17.39,5.42-25.69.18,7.82-.09,15.6,1.05,23.39Z"/><path class="cls-1" d="M612.11,526.19c1.16,7.11,2.34,14.21,3.48,21.32.37,2.29.68,4.59.89,6.9.19,2.05-.16,3.77-3.2,3.06-2.03-10.27-1-20.78-1.17-31.29Z"/><path class="cls-1" d="M630.9,550.99c-.21-9.52.15-18.71-.79-27.9,3.01,8.72,4.02,17.78,5.31,26.68-1.28,1.31-2.51,1.91-4.52,1.22Z"/><path class="cls-1" d="M340.4,536.41c2.5,9.15,3.8,18.38,4.86,27.99-2.65.6-3.97-.32-4.02-2.8-.16-8.41-.27-16.82-.84-25.18Z"/><path class="cls-1" d="M362.61,562.41c-3.57-9.75-2.3-19.89-3.41-29.8,2.12,9.86,5.32,19.59,3.41,29.8Z"/><path class="cls-1" d="M325.27,557.6c-2.3.01-3.7-.75-5.34-1.68.92-6.02,3.88-10.64,8.26-14.53-1.48,5.29-1.63,10.75-2.92,16.21Z"/><path class="cls-1" d="M433.42,561.27c-1.76.73-2.93-.09-4.35-1.2v-21.79c1.8,8.42,4.33,15.44,4.35,22.98Z"/><path class="cls-1" d="M502.31,567.16c-1.54,1.04-2.69.71-4.02-.53.46-5.86,3.7-10.41,8.11-14.48-1.38,5.07-2.75,10.13-4.08,15.02Z"/><path class="cls-1" d="M353.88,546.69c-.5,6.85-1,13.7-1.49,20.45-1.74.54-2.9.03-2.69-1.4.95-6.47,2.1-12.9,3.18-19.35.33.1.67.2,1,.3Z"/><path class="cls-1" d="M570.19,542.19c-3.18,7.92-4.06,15.96-1.92,24.25-.51-2.16-1.02-4.32-1.52-6.43-1.37-.8-1.31,1.37-2.72.93.93-6.56,2.56-12.91,6.16-18.75Z"/><path class="cls-1" d="M656.23,542.23c1.31-7,3.67-13.66,7.41-19.88-1.81,6.85-3.62,13.7-5.43,20.55-.66-.23-1.32-.45-1.98-.68Z"/><path class="cls-1" d="M622.07,555.21c-.59-6.32.94-12.28,2.53-18.23-.92,6.06,1.36,12.67-2.53,18.23Z"/><path class="cls-1" d="M551.31,559.57c-1.71-6.08,1.02-11.65,3.37-17.26-.47,5.83-.94,11.65-1.4,17.48-.65-.07-1.31-.15-1.96-.22Z"/><path class="cls-1" d="M306.03,550.68c.4-4.15,1.86-7.72,3.68-11.24v11.41c-1.18,1.57-2.26,1.03-3.68-.16Z"/><path class="cls-1" d="M537.23,544.31c1.48,5.17,2.95,10.33,1.62,15.86-1.05-5.22-2.41-10.4-1.62-15.86Z"/><path class="cls-1" d="M607.08,550.68c.34,3.1,2.41,6.08.34,10.65-1-4.34-.63-7.5-.34-10.65Z"/><path class="cls-1" d="M313.8,554.83c-.31-3.96.7-6.15,1.72-9.62.56,3.74.31,6.08-1.72,9.62Z"/><path class="cls-3" d="M781.59,358.26c.54,6.24.36,11.94-.23,18.05h-15.86v-11.03h-51.03c-1.19-2.59-.5-4.64-.57-7.02h67.69Z"/><path class="cls-3" d="M678.29,357.68h15.77v19.2c-5.09,2.11-10.21,1.56-15.77,1.25v-20.46Z"/><path class="cls-2" d="M766.11,380.6c-.04-.24-.07-.47-.1-.73.63.18.34.46.1.73Z"/><path class="cls-3" d="M120.52,357.76v18.83h-15.41c-1.64-3.74-.17-7.37-1.48-11.24h-50.62c-.78-2.74-.53-4.98-.25-7.58h67.75Z"/><path class="cls-3" d="M32.9,357.44v23.33c-5.21.68-10.24.4-15.81.27v-23.23c4.99-.82,10.08-.27,15.81-.37Z"/><path class="cls-3" d="M818.15,357.19c.07,8.18-1.09,16.16,4.81,22.83-6.21,1.31-11.6,1.42-17.1,1-5.53-7.16-4.09-15.4-4.24-23.83h16.52Z"/><path class="cls-3" d="M914.06,358.16c.21,7.69,1.03,15.48-3.79,22.55-5.36-.77-10.74-.6-17.3-.52,5.35-6.98,4.67-14.47,4.79-22.03h16.31Z"/><path class="cls-3" d="M244.03,358.25c-8.61,11.02-20.54,13.11-34.2,14.03,3.72,2.83,6.49,4.94,10.2,7.76-7.51,2.25-14.21,0-20.63,1.92-8.69-5.06-16.25-13.42-27.95-9.55-1.2-4.57-.82-8.48-.65-12.87,10.51,0,20.78-.48,31,.13,12.05.72,23.68-3.44,35.69-2.29,1.94.19,3.95-.39,6.54.87Z"/><path class="cls-3" d="M159.79,380.87c-5.36.37-10.1.51-15.11-.07-1.51-7.48-1.06-14.88-1.1-22.84,5.38-1.06,10.57-.4,16.21-.45v23.36Z"/><path class="cls-3" d="M385.2,358.27c5.29-.38,10.32-.66,15.66.14.81,4.95.51,9.63-.02,14.46-4.53,1.75-9.06.25-13.41,1.05-1.56.52-.68,2.43-2.23,3.58v-19.23Z"/><path class="cls-3" d="M604.04,358.13v24.69c-7.42,0-14.51,0-21.6-.01-.81,0-1.81-.53-2.4-.21-6.05,3.25-9.91-.67-14.07-4.03-7.97-6.45-16.04-12.79-23.82-19.91,8.87.46,18.06-3.87,26.06,4,5.63,5.54,12.21,10.12,19.33,15.92v-20.46h16.5Z"/><path class="cls-3" d="M500.76,358.37c5.44-.63,10.46-.61,15.84-.03v21.39c-5.05-.24-10.07,1.55-15.66-1.43-.51-6.11-.75-12.88-.18-19.93Z"/><path class="cls-3" d="M285.76,357.63v22.46c-4.23-6.13-11.33,1.75-16-4.49v-17.07c4.97-1.37,10.28-.03,16-.91Z"/><path class="cls-3" d="M469.38,356.53c1.52,2.89.88,5.48.8,8.28h-57.9c-.55-2.82-.59-5.4.31-8.28h56.79Z"/><path class="cls-3" d="M353.72,355.91c1.83,2.68,1.17,5.67,1.06,8.87h-58.02c-.55-2.89-.82-5.76.78-8.87h56.19Z"/></svg>